<svg width="20" height="20" viewBox="0 0 20 20" fill="none" xmlns="http://www.w3.org/2000/svg">
<path d="M17.1434 4.23592L10.5634 10.1001C10.4108 10.2362 10.2134 10.3114 10.0088 10.3114C9.8043 10.3114 9.60691 10.2362 9.45425 10.1001L2.84675 4.23925C3.00449 4.19114 3.1685 4.1667 3.33342 4.16675H16.6667C16.8281 4.1666 16.9887 4.1899 17.1434 4.23592V4.23592ZM18.2734 5.39008C18.3126 5.53175 18.3334 5.68008 18.3334 5.83342V14.1667C18.3334 14.6088 18.1578 15.0327 17.8453 15.3453C17.5327 15.6578 17.1088 15.8334 16.6667 15.8334H3.33342C2.89139 15.8334 2.46747 15.6578 2.1549 15.3453C1.84234 15.0327 1.66675 14.6088 1.66675 14.1667V5.83342C1.66658 5.68305 1.68677 5.53336 1.72675 5.38842L8.34508 11.3451C8.80302 11.7532 9.39501 11.9787 10.0084 11.9787C10.6218 11.9787 11.2138 11.7532 11.6717 11.3451L18.2734 5.39008V5.39008Z" fill="#21272A"/>
</svg>
